<svg width="21" height="21" viewBox="0 0 21 21" fill="none" xmlns="http://www.w3.org/2000/svg">
<path d="M10.5 1.75C5.67 1.75 1.75 5.67 1.75 10.5C1.75 15.33 5.67 19.25 10.5 19.25C15.33 19.25 19.25 15.33 19.25 10.5C19.25 5.67 15.33 1.75 10.5 1.75ZM13.5887 11.4012L10.9637 14.0263C10.8325 14.1575 10.6662 14.2188 10.5 14.2188C10.3338 14.2188 10.1675 14.1575 10.0363 14.0263L7.41125 11.4012C7.1575 11.1475 7.1575 10.7275 7.41125 10.4738C7.665 10.22 8.085 10.22 8.33875 10.4738L9.84375 11.9787V7.4375C9.84375 7.07875 10.1413 6.78125 10.5 6.78125C10.8587 6.78125 11.1562 7.07875 11.1562 7.4375V11.9787L12.6613 10.4738C12.915 10.22 13.335 10.22 13.5887 10.4738C13.8425 10.7275 13.8425 11.1475 13.5887 11.4012Z" fill="white"/>
</svg>
