<svg width="18" height="19" viewBox="0 0 18 19" fill="none" xmlns="http://www.w3.org/2000/svg">
<path d="M0 9.5C0 11.8869 0.948212 14.1761 2.63604 15.864C4.32387 17.5518 6.61305 18.5 9 18.5C11.3869 18.5 13.6761 17.5518 15.364 15.864C17.0518 14.1761 18 11.8869 18 9.5C18 7.11305 17.0518 4.82387 15.364 3.13604C13.6761 1.44821 11.3869 0.5 9 0.5C6.61305 0.5 4.32387 1.44821 2.63604 3.13604C0.948212 4.82387 0 7.11305 0 9.5H0ZM6.642 12.6534C6.59011 12.7071 6.52804 12.75 6.45941 12.7794C6.39079 12.8089 6.31698 12.8244 6.24229 12.8251C6.1676 12.8257 6.09353 12.8115 6.0244 12.7832C5.95527 12.7549 5.89247 12.7132 5.83965 12.6603C5.78684 12.6075 5.74507 12.5447 5.71679 12.4756C5.6885 12.4065 5.67427 12.3324 5.67492 12.2577C5.67557 12.183 5.69109 12.1092 5.72057 12.0406C5.75005 11.972 5.7929 11.9099 5.84662 11.858L10.4546 7.25H7.34063C7.19144 7.25 7.04837 7.19074 6.94288 7.08525C6.83739 6.97976 6.77813 6.83668 6.77813 6.6875C6.77813 6.53832 6.83739 6.39524 6.94288 6.28975C7.04837 6.18426 7.19144 6.125 7.34063 6.125H11.8125C11.9617 6.125 12.1048 6.18426 12.2102 6.28975C12.3157 6.39524 12.375 6.53832 12.375 6.6875V11.1594C12.375 11.3086 12.3157 11.4516 12.2102 11.5571C12.1048 11.6626 11.9617 11.7219 11.8125 11.7219C11.6633 11.7219 11.5202 11.6626 11.4148 11.5571C11.3093 11.4516 11.25 11.3086 11.25 11.1594V8.04537L6.642 12.6534Z" fill="white"/>
</svg>
