<svg width="25" height="25" viewBox="0 0 25 25" fill="none" xmlns="http://www.w3.org/2000/svg">
<path d="M12.3596 2.36827C15.6619 2.36827 16.053 2.38276 17.3517 2.44069C18.5587 2.4938 19.2105 2.69657 19.645 2.86555C20.2195 3.08764 20.6347 3.35801 21.0644 3.78769C21.4989 4.22221 21.7645 4.63259 21.9866 5.20712C22.1556 5.64163 22.3583 6.29824 22.4114 7.5004C22.4694 8.80395 22.4839 9.19502 22.4839 12.4925C22.4839 15.7949 22.4694 16.1859 22.4114 17.4846C22.3583 18.6916 22.1556 19.3434 21.9866 19.7779C21.7645 20.3525 21.4941 20.7677 21.0644 21.1974C20.6299 21.6319 20.2195 21.8974 19.645 22.1195C19.2105 22.2885 18.5539 22.4912 17.3517 22.5444C16.0482 22.6023 15.6571 22.6168 12.3596 22.6168C9.05727 22.6168 8.66621 22.6023 7.36748 22.5444C6.16049 22.4912 5.50871 22.2885 5.0742 22.1195C4.49967 21.8974 4.08446 21.627 3.65477 21.1974C3.22026 20.7628 2.95472 20.3525 2.73263 19.7779C2.56365 19.3434 2.36088 18.6868 2.30777 17.4846C2.24983 16.1811 2.23535 15.79 2.23535 12.4925C2.23535 9.19019 2.24983 8.79913 2.30777 7.5004C2.36088 6.29341 2.56365 5.64163 2.73263 5.20712C2.95472 4.63259 3.22508 4.21738 3.65477 3.78769C4.08929 3.35318 4.49967 3.08764 5.0742 2.86555C5.50871 2.69657 6.16532 2.4938 7.36748 2.44069C8.66621 2.38276 9.05727 2.36827 12.3596 2.36827ZM12.3596 0.142578C9.00416 0.142578 8.58413 0.157062 7.26609 0.214998C5.95289 0.272933 5.05006 0.485364 4.26792 0.789526C3.452 1.10817 2.7616 1.52821 2.07603 2.2186C1.38563 2.90418 0.965594 3.59458 0.646948 4.40567C0.342786 5.19263 0.130355 6.09064 0.0724195 7.40384C0.0144839 8.72671 0 9.14674 0 12.5022C0 15.8576 0.0144839 16.2777 0.0724195 17.5957C0.130355 18.9089 0.342786 19.8117 0.646948 20.5939C0.965594 21.4098 1.38563 22.1002 2.07603 22.7858C2.7616 23.4713 3.452 23.8962 4.2631 24.21C5.05006 24.5142 5.94806 24.7266 7.26127 24.7845C8.5793 24.8425 8.99933 24.857 12.3548 24.857C15.7102 24.857 16.1302 24.8425 17.4483 24.7845C18.7615 24.7266 19.6643 24.5142 20.4465 24.21C21.2575 23.8962 21.9479 23.4713 22.6335 22.7858C23.3191 22.1002 23.744 21.4098 24.0578 20.5987C24.3619 19.8117 24.5744 18.9137 24.6323 17.6005C24.6902 16.2825 24.7047 15.8624 24.7047 12.507C24.7047 9.15157 24.6902 8.73153 24.6323 7.4135C24.5744 6.10029 24.3619 5.19746 24.0578 4.41533C23.7536 3.59458 23.3336 2.90418 22.6432 2.2186C21.9576 1.53303 21.2672 1.10817 20.4561 0.794354C19.6691 0.490192 18.7711 0.277761 17.4579 0.219826C16.1351 0.157062 15.715 0.142578 12.3596 0.142578Z" fill="white"/>
<path d="M12.3595 6.15381C8.85442 6.15381 6.01074 8.99748 6.01074 12.5026C6.01074 16.0077 8.85442 18.8514 12.3595 18.8514C15.8646 18.8514 18.7083 16.0077 18.7083 12.5026C18.7083 8.99748 15.8646 6.15381 12.3595 6.15381ZM12.3595 16.6208C10.0855 16.6208 8.24126 14.7766 8.24126 12.5026C8.24126 10.2286 10.0855 8.38433 12.3595 8.38433C14.6335 8.38433 16.4778 10.2286 16.4778 12.5026C16.4778 14.7766 14.6335 16.6208 12.3595 16.6208Z" fill="white"/>
<path d="M20.4417 5.90211C20.4417 6.72287 19.7754 7.3843 18.9595 7.3843C18.1387 7.3843 17.4773 6.71804 17.4773 5.90211C17.4773 5.08135 18.1436 4.41992 18.9595 4.41992C19.7754 4.41992 20.4417 5.08618 20.4417 5.90211Z" fill="white"/>
</svg>
