<svg width="18" height="18" viewBox="0 0 18 18" fill="none" xmlns="http://www.w3.org/2000/svg">
<path d="M2.63606 15.364C4.32388 17.0518 6.61307 18 9.00002 18C11.387 18 13.6761 17.0518 15.364 15.364C17.0518 13.6761 18 11.3869 18 9C18 6.61305 17.0518 4.32387 15.364 2.63604C13.6761 0.948212 11.387 5.51758e-08 9.00002 5.51758e-08C6.61307 5.51758e-08 4.32388 0.948212 2.63606 2.63604C0.948228 4.32387 1.67939e-05 6.61305 1.67939e-05 9C1.67939e-05 11.3869 0.948228 13.6761 2.63606 15.364ZM9.56243 12.8971C9.56373 12.9718 9.55014 13.046 9.52246 13.1154C9.49478 13.1847 9.45356 13.2479 9.40121 13.3012C9.34885 13.3545 9.28641 13.3968 9.21753 13.4256C9.14865 13.4545 9.07471 13.4694 9.00002 13.4694C8.92533 13.4694 8.85138 13.4545 8.7825 13.4256C8.71362 13.3968 8.65118 13.3545 8.59883 13.3012C8.54647 13.2479 8.50525 13.1847 8.47757 13.1154C8.44989 13.046 8.4363 12.9718 8.4376 12.8971L8.4376 6.38043L6.23567 8.58236C6.13018 8.68785 5.98711 8.74712 5.83792 8.74712C5.68874 8.74712 5.54567 8.68785 5.44018 8.58236C5.33469 8.47688 5.27542 8.3338 5.27542 8.18462C5.27542 8.03543 5.33469 7.89236 5.44018 7.78687L8.60227 4.62478C8.70776 4.51929 8.85083 4.46002 9.00002 4.46002C9.1492 4.46002 9.29227 4.51929 9.39776 4.62478L12.5599 7.78687C12.6653 7.89236 12.7246 8.03543 12.7246 8.18462C12.7246 8.3338 12.6653 8.47688 12.5599 8.58237C12.4544 8.68785 12.3113 8.74712 12.1621 8.74712C12.0129 8.74712 11.8699 8.68785 11.7644 8.58237L9.56243 6.38043L9.56243 12.8971Z" fill="white"/>
</svg>
