<svg width="26" height="19" viewBox="0 0 26 19" fill="none" xmlns="http://www.w3.org/2000/svg">
<path d="M25.1776 4.55846C25.1776 4.55846 24.9362 2.85419 24.1927 2.10585C23.2512 1.12095 22.1987 1.11612 21.7159 1.05818C18.2591 0.807129 13.069 0.807129 13.069 0.807129H13.0594C13.0594 0.807129 7.8693 0.807129 4.41247 1.05818C3.92967 1.11612 2.87718 1.12095 1.93572 2.10585C1.19221 2.85419 0.955644 4.55846 0.955644 4.55846C0.955644 4.55846 0.70459 6.56207 0.70459 8.56085V10.4341C0.70459 12.4329 0.950816 14.4365 0.950816 14.4365C0.950816 14.4365 1.19221 16.1408 1.93089 16.8891C2.87235 17.874 4.10831 17.8402 4.6587 17.9464C6.63816 18.1347 13.0642 18.1926 13.0642 18.1926C13.0642 18.1926 18.2591 18.183 21.7159 17.9368C22.1987 17.8788 23.2512 17.874 24.1927 16.8891C24.9362 16.1408 25.1776 14.4365 25.1776 14.4365C25.1776 14.4365 25.4238 12.4377 25.4238 10.4341V8.56085C25.4238 6.56207 25.1776 4.55846 25.1776 4.55846ZM10.5102 12.7081V5.76062L17.1873 9.24642L10.5102 12.7081Z" fill="white"/>
</svg>
